<!-- icon666.com - MILLIONS vector ICONS FREE --><svg viewBox="-31 0 512 512" xmlns="http://www.w3.org/2000/svg"><path d="m450 286v60c0 5.097656-.902344 10.199219-1.5 15l-238.5 30-208.5-30c-.597656-4.800781-1.5-9.902344-1.5-15v-60c0-28.199219 10.800781-55.300781 30.902344-75.101562 19.796875-20.097657 45.898437-30.898438 74.097656-30.898438h60l30 30h60l30-30h60c28.199219 0 54.300781 10.800781 74.097656 30.898438 20.101563 19.800781 30.902344 46.902343 30.902344 75.101562zm0 0" fill="#6e6e6e"></path><path d="m450 286v60c0 5.097656-.902344 10.199219-1.5 15l-223.5 28.199219v-179.199219h30l30-30h60c28.199219 0 54.300781 10.800781 74.097656 30.898438 20.101563 19.800781 30.902344 46.902343 30.902344 75.101562zm0 0" fill="#5a5a5a"></path><path d="m448.5 361c-7.5 50.699219-50.699219 90-103.5 90h-240c-12.898438 0-96-39.300781-103.5-90zm0 0" fill="#76e2f8"></path><path d="m448.5 361c-7.5 50.699219-50.699219 90-103.5 90h-105v-90zm0 0" fill="#25d9f8"></path><path d="m390 286v60c0 90.898438-74.097656 166-165 166s-165-75.101562-165-166v-60c0-52.800781 39.300781-97 90-104.5l30 43.5h90l30-43.5c50.699219 7.5 90 51.699219 90 104.5zm0 0" fill="#ececf1"></path><path d="m390 286v60c0 90.898438-74.097656 166-165 166v-287h45l30-43.5c50.699219 7.5 90 51.699219 90 104.5zm0 0" fill="#d3d3d8"></path><path d="m135 0h180v150h-180zm0 0" fill="#5a5a5a"></path><path d="m225 0h90v150h-90zm0 0" fill="#444"></path><path d="m150 30h150v90h-150zm0 0" fill="#e2e2e7"></path><path d="m225 30h75v90h-75zm0 0" fill="#d3d3d8"></path><path d="m135 150c-41.351562 0-75-33.648438-75-75s33.648438-75 75-75 75 33.648438 75 75-33.648438 75-75 75zm0 0" fill="#5a5a5a"></path><path d="m135 30c-24.8125 0-45 20.1875-45 45s20.1875 45 45 45 45-20.1875 45-45-20.1875-45-45-45zm0 0" fill="#a8ebfa"></path><path d="m315 150c-41.351562 0-75-33.648438-75-75s33.648438-75 75-75 75 33.648438 75 75-33.648438 75-75 75zm0 0" fill="#444"></path><path d="m315 30c-24.8125 0-45 20.1875-45 45s20.1875 45 45 45 45-20.1875 45-45-20.1875-45-45-45zm0 0" fill="#76e2f8"></path><path d="m330 75c0 8.285156-6.714844 15-15 15s-15-6.714844-15-15 6.714844-15 15-15 15 6.714844 15 15zm0 0" fill="#444"></path><path d="m150 75c0 8.285156-6.714844 15-15 15s-15-6.714844-15-15 6.714844-15 15-15 15 6.714844 15 15zm0 0" fill="#5a5a5a"></path><path d="m300 181.5v119.5l-75 30-75-30v-119.5c4.800781-.601562 9.902344-1.5 15-1.5h120c5.097656 0 10.199219.898438 15 1.5zm0 0" fill="#a8ebfa"></path><path d="m300 181.5v119.5l-75 30v-151h60c5.097656 0 10.199219.898438 15 1.5zm0 0" fill="#25d9f8"></path><path d="m300 301v45c0 41.398438-33.601562 75-75 75s-75-33.601562-75-75v-45zm0 0" fill="#6e6e6e"></path><path d="m300 301v45c0 41.398438-33.601562 75-75 75v-120zm0 0" fill="#444"></path><path d="m240 346c0 8.398438-6.597656 15-15 15s-15-6.601562-15-15c0-8.402344 6.597656-15 15-15s15 6.597656 15 15zm0 0" fill="#a8ebfa"></path><path d="m240 346c0 8.398438-6.597656 15-15 15v-30c8.402344 0 15 6.597656 15 15zm0 0" fill="#25d9f8"></path></svg>